{"extensionsUsed" : ["KHR_materials_pbrSpecularGlossiness"], "accessors" : [{"bufferView" : 0, "byteOffset" : 0, "componentType" : 5123, "count" : 44937, "type" : "SCALAR", "max" : [8241], "min" : [0]}, {"bufferView" : 1, "byteOffset" : 0, "componentType" : 5126, "count" : 8242, "type" : "VEC3", "max" : [7.31804084777832, 24.69900131225586, 5.983739376068115], "min" : [-7.436141014099121, 0, -8.342395782470703]}, {"bufferView" : 1, "byteOffset" : 12, "componentType" : 5126, "count" : 8242, "type" : "VEC3", "max" : [0.9994474053382874, 0.9995125532150269, 0.9997808933258057], "min" : [-0.9999586939811707, -0.9981881976127625, -0.9990087151527405]}, {"bufferView" : 1, "byteOffset" : 24, "componentType" : 5126, "count" : 8242, "type" : "VEC2", "max" : [0.9959712624549866, 0.9961193203926086], "min" : [0.004521272610872984, 0.0038362741470336914]}], "asset" : {"generator" : "Aspose.3D 21.1", "version" : "2.0"}, "buffers" : [{"uri" : "buffer.bin", "byteLength" : 6933184}], "bufferViews" : [{"buffer" : 0, "byteOffset" : 0, "byteLength" : 89876, "target" : 34963}, {"buffer" : 0, "byteOffset" : 89880, "byteLength" : 1437984, "byteStride" : 32, "target" : 34962}, {"buffer" : 0, "byteOffset" : 1527868, "byteLength" : 2313476}, {"buffer" : 0, "byteOffset" : 3841348, "byteLength" : 107734}, {"buffer" : 0, "byteOffset" : 3949084, "byteLength" : 2362246}, {"buffer" : 0, "byteOffset" : 6311332, "byteLength" : 621851}], "images" : [{"mimeType" : "image/png", "bufferView" : 2}, {"mimeType" : "image/png", "bufferView" : 3}, {"mimeType" : "image/png", "bufferView" : 4}, {"mimeType" : "image/png", "bufferView" : 5}], "materials" : [{"extensions" : {"KHR_materials_pbrSpecularGlossiness" : {"diffuseFactor" : [1, 1, 1, 1], "diffuseTexture" : {"index" : 0, "texCoord" : 0}, "specularFactor" : [1, 1, 1], "glossinessFactor" : 1, "specularGlossinessTexture" : {"index" : 1, "texCoord" : 0, "scale" : 1}}}, "pbrMetallicRoughness" : {"baseColorFactor" : [1, 1, 1, 1], "baseColorTexture" : {"index" : 2, "texCoord" : 0}, "metallicFactor" : 1, "roughnessFactor" : 1, "metallicRoughnessTexture" : {"index" : 3, "texCoord" : 0}}, "emissiveFactor" : [0, 0, 0], "alphaMode" : "OPAQUE", "doubleSided" : true}], "meshes" : [{"primitives" : [{"attributes" : {"POSITION" : 1, "NORMAL" : 2, "TEXCOORD_0" : 3}, "indices" : 0, "material" : 0, "mode" : 4}]}], "nodes" : [{"matrix" : [0.011304466985166073, 0, 0, 0, 0, 0.011304466985166073, 0, 0, 0, 0, 0.011304466985166073, 0, 0.010062245652079582, -0.13705377280712128, 0.1377706527709961, 1], "mesh" : 0, "name" : "node_id30"}, {"children" : [0], "name" : "root"}], "samplers" : [{"magFilter" : 9728, "minFilter" : 9985, "wrapS" : 10497, "wrapT" : 10497}, {"magFilter" : 9728, "minFilter" : 9985, "wrapS" : 10497, "wrapT" : 10497}, {"magFilter" : 9728, "minFilter" : 9985, "wrapS" : 10497, "wrapT" : 10497}, {"magFilter" : 9728, "minFilter" : 9985, "wrapS" : 10497, "wrapT" : 10497}], "scene" : 0, "scenes" : [{"nodes" : [1]}], "textures" : [{"sampler" : 0, "source" : 0}, {"sampler" : 1, "source" : 1}, {"sampler" : 2, "source" : 2}, {"sampler" : 3, "source" : 3}]}